<?xml version="1.0" standalone="no"?>
<!DOCTYPE svg PUBLIC "-//W3C//DTD SVG 1.1//EN" "http://www.w3.org/Graphics/SVG/1.1/DTD/svg11.dtd" >
<!--
2013-9-30: Created.
-->
<svg>
<metadata>
Created by iconfont
</metadata>
<defs>

<font id="iconfont" horiz-adv-x="1024" >
  <font-face
    font-family="iconfont"
    font-weight="500"
    font-stretch="normal"
    units-per-em="1024"
    ascent="896"
    descent="-128"
  />
    <missing-glyph />
    
    <glyph glyph-name="xinxi" unicode="&#58908;" d="M1016.32 97.28c0-23.04-20.48-43.52-43.52-43.52H591.36c-5.12-2.56-7.68-7.68-10.24-7.68L332.8-117.76l-5.12 171.52h-281.6c-23.04 0-43.52 20.48-43.52 43.52V204.8v7.68V829.44C2.56 852.48 23.04 872.96 46.08 872.96H972.8c23.04 0 43.52-20.48 43.52-43.52V97.28z m-732.16 409.6H171.52c-12.8-12.8-20.48-33.28-20.48-51.2 0-43.52 33.28-76.8 76.8-76.8s76.8 33.28 76.8 76.8c0 20.48-7.68 38.4-20.48 51.2z m261.12 0H435.2c-12.8-12.8-20.48-33.28-20.48-51.2 0-43.52 33.28-76.8 76.8-76.8s76.8 33.28 76.8 76.8c-2.56 20.48-10.24 38.4-23.04 51.2z m263.68 0h-112.64c-12.8-12.8-20.48-33.28-20.48-51.2 0-43.52 33.28-76.8 76.8-76.8s76.8 33.28 76.8 76.8c0 20.48-7.68 38.4-20.48 51.2z"  horiz-adv-x="1024" />

    
    <glyph glyph-name="z7" unicode="&#58936;" d="M150.61038421 661.56113466C227.96265358 738.93203401 327.75089038 789.12595742 437.99565995 804.95571287 572.73719808 824.32958238 707.00836067 789.97123529 815.98055538 708.36695951c109.00246755-81.65899833 179.68565589-200.86534713 199.05370339-335.60688412 39.9609344-278.35151133-153.98733483-537.17895851-432.16187278-577.16667164-116.64489927-16.72975587-236.25293027 7.71927609-336.80610873 68.76908771-17.18150258 10.45420487-22.6583461 32.86339243-12.22975488 50.04256597 10.53454109 17.03130795 32.84359965 22.65252409 50.04372992 12.20064826 86.12057657-52.33855602 188.64723399-73.24696576 288.66017963-58.91216498 238.38591886 34.20931755 404.59835165 256.09368235 370.38787015 494.70780302-16.57723335 115.52368413-77.17529714 217.65098837-170.61696171 287.6123136C678.89878471 720.00758217 563.82801237 749.38740282 448.32528611 732.75894103c-238.63740643-34.19767467-404.79861077-256.13210397-370.51594296-494.64143872 8.98952192-62.44463616 30.64657465-120.8014336 64.5345462-173.38332616 10.85588707-16.98124345 5.89948359-39.58719602-10.90711552-50.34528198-16.90207118-10.90129465-39.46145223-6.0217344-50.33946112 10.85588707-39.53713152 61.54580082-64.85705614 129.61398215-75.39043328 202.51049529C-13.63555555 362.50263553 20.66923406 496.84598444 102.38295381 605.84495902 117.22305877 625.7078329000001 133.35320235 644.33306057 150.61038421 661.56113466L150.61038421 661.56113466 150.61038421 661.56113466 150.61038421 661.56113466zM150.61038421 661.56113466M596.29554347 506.62489886L375.69073835 506.62489886c-19.11539598 0-28.64980878 9.53441166-28.64980878 28.64980878 0 13.34049223 9.53441166 21.93531904 28.64980878 25.78447815l263.57893575 0c20.99573305-1.92457955 32.45472427-8.59482567 34.38046891-20.05498197-1.9257435-9.57981923-6.71565369-21.97956153-14.32665088-37.24463445L464.50549419 59.68462849000002c-7.65523968-13.38473586-20.05614706-20.05498197-37.24463446-20.05498197-17.19081643 0-25.78447815 6.67024611-25.78447815 20.05498197-1.92457955 5.73066013 1.88033707 17.18965248 11.46015631 34.38046891l183.36017066 409.69447197L596.29670855 506.62489886z"  horiz-adv-x="1024" />

    
    <glyph glyph-name="z15" unicode="&#58937;" d="M126.51774316 652.3666424099999C209.02683049 734.8956017 315.46761641 788.43578668 433.06203728 805.32085916c143.72430734 20.66546081 286.94688078-15.98344275 403.18264691-103.02800357 116.26929872-87.10293155 191.66469962-214.25637027 212.32519305-357.98191916 42.62375515-296.90827875-164.25315715-572.98964753-460.9726643-615.64320821-124.42122589-17.84507293-252.00312562 8.2338945-359.26109086 73.35369356-18.32693609 11.15115186-24.16890251 35.05428526-13.04507187 53.37873704 11.23684383 18.16672848 35.03317296 24.16269236 53.37997858 13.0140248 91.86194834-55.82779309 201.22371626-78.13009681 307.9041916-62.83964264 254.2770719 36.48993872 431.57033355 273.16659451 395.0791533 527.68832322-17.68238224 123.22526307-82.3190754 232.16105426-181.99142583 306.7877106C690.02537036 714.7082769900001 567.28321319 746.04799511 444.08030518 728.3109692c-254.54656686-36.47751965-431.78518482-273.20757757-395.21700582-527.61753463 9.58882338-66.6076119 32.68967963-128.85486251 68.83684928-184.94221456 11.57961287-18.11332635 6.2927825-42.22634242-11.63425655-53.70163414-18.02887593-11.62804763-42.09221571-6.42318336-53.6954252 11.57961289-42.17294029 65.64885421-69.18085988 138.25491429-80.41646216 216.01119497C-48.67792592 333.37091001-12.08615034 476.67048217 75.07515073 592.93605506 90.90459602 614.12312053 108.10884096 633.9900300300001 126.51774316 652.3666424099999L126.51774316 652.3666424099999 126.51774316 652.3666424099999 126.51774316 652.3666424099999zM126.51774316 652.3666424099999M301.20919282 41.72710778999999L301.20919282 456.02116628l-64.99188128 0c-16.24548603 0-24.37133471 9.01505934-24.37133472 27.07870818 0 14.4248389 8.12584748 22.54944605 24.37133472 24.37009317l108.31235087 0c12.61288622 0 18.96031239-5.41598971 18.9603124-16.24548602l0-449.4973726c-1.82064711-18.06613314-12.65262774-27.07995094-32.49594066-27.07995093C311.10601114 14.647158080000054 301.20919282 23.660974649999957 301.20919282 41.72710778999999L301.20919282 41.72710778999999zM301.20919282 41.72710778999999M588.23679818 456.02116628l-18.95286071-135.39105906c18.022667 9.01257504 39.68414273 14.43104905 64.9844296 16.25045462 75.82013607-9.0560424 118.21165227-59.57464883 127.26893743-151.63778784-5.41723246-111.95240236-59.56968144-168.81719342-162.47225154-170.59437439-75.81765177 1.7784213-121.84922066 27.96916159-138.09346515 78.52502646 0 14.43353334 7.18820208 22.55068759 21.66023418 24.37009317 5.41723246 0 15.31653386-6.33873294 29.78856597-18.95286071 28.84843747-21.66147694 58.63576189-32.4946991 89.35203847-32.49469911 57.75648601 3.59658533 89.36197446 39.68911011 94.77299678 108.31359243-3.63756839 66.76409366-32.48848896 101.96740779-86.64590655 105.60497618-19.89174765 0-41.55074029-4.52677905-64.99063974-13.53562826-9.05479965-3.63880994-15.35503382-5.41723246-18.95286072-5.41723246-14.47327365 0-21.66271849 6.30023297-21.66271848 18.95286072 0 5.41847401 1.7784213 18.95410225 5.418474 40.61557919l27.07125772 170.59437439c-1.81940558 10.83446371 5.41723246 16.24548603 21.66768587 16.24548602l170.58816424 0c16.24424448-1.81940558 25.25930382-9.93780137 27.07995095-24.37009317-1.82064711-18.06365006-10.83570646-27.07870819-27.07995095-27.07870818L588.23679818 456.02116628 588.23679818 456.02116628zM588.23679818 456.02116628"  horiz-adv-x="1024" />

    
    <glyph glyph-name="buoumaotubiao46" unicode="&#58921;" d="M279.760756 327.34642435c-17.873455 0-35.746909 6.795636-49.361455 20.386909l-194.513455 194.513455c-9.099636 9.099636-9.099636 23.808 0 32.907636s23.808 9.099636 32.907636 0l194.513455-194.513455c9.146182-9.099636 23.877818-9.076364 32.930909 0l109.405091 109.428364c4.375273 4.375273 6.772364 10.193455 6.772364 16.453818s-2.420364 12.101818-6.772364 16.477091L211.408756 717.23442435c-9.099636 9.099636-9.099636 23.808 0 32.907636s23.808 9.099636 32.907636 0l194.234182-194.234182c13.149091-13.149091 20.410182-30.696727 20.410182-49.384727s-7.261091-36.212364-20.410182-49.384727l-109.405091-109.428364C315.530938 334.14206034999995 297.657484 327.34642435 279.760756 327.34642435zM891.228393-226.21866664999993c-34.373818 0-68.701091 13.079273-94.859636 39.237818L512.83712 96.55078834999995c-9.099636 9.099636-9.099636 23.808 0 32.907636s23.808 9.099636 32.907636 0l283.554909-283.554909c34.187636-34.164364 89.716364-34.164364 123.904 0 34.117818 34.141091 34.117818 89.716364 0 123.904L669.625484 253.33915134999995c-9.099636 9.076364-9.099636 23.808 0 32.907636s23.808 9.099636 32.907636 0L986.111302 2.715151350000042c52.270545-52.317091 52.270545-137.425455 0-189.696C959.952756-213.1393936500001 925.602211-226.21866664999993 891.228393-226.21866664999993zM366.91712 50.517333349999944c-94.976 0-188.485818 37.12-259.630545 108.288C0.488029 265.58060635000004-30.13888 430.09551535 31.04512 568.14933335 36.234938 579.8787883499999 49.919302 585.25478835 61.76512 579.99515135 73.517847 574.7820603499999 78.800756 561.02787835 73.610938 549.29842435c-53.457455-120.599273-26.693818-264.285091 66.583273-357.562182 100.677818-100.654545 252.602182-123.438545 378.158545-56.552727 11.310545 6.050909 25.460364 1.722182 31.488-9.611636 6.050909-11.357091 1.745455-25.437091-9.611636-31.488C485.235665 64.80678835000003 425.773847 50.517333349999944 366.91712 50.517333349999944zM705.418938 328.44024234999995c-1.489455 0-3.025455 0.139636-4.538182 0.442182-12.613818 2.490182-20.805818 14.731636-18.315636 27.345455 20.875636 105.541818-11.985455 213.922909-87.947636 289.908364-93.323636 93.300364-237.056 120.017455-357.608727 66.56C225.139665 707.4831513500001 211.455302 712.81260635 206.288756 724.54206035 201.075665 736.29478835 206.381847 750.04896935 218.134575 755.23878835c137.960727 61.207273 302.568727 30.626909 409.390545-76.194909 86.970182-86.970182 124.602182-211.037091 100.724364-331.869091C726.038575 336.09696935 716.310575 328.44024234999995 705.418938 328.44024234999995z"  horiz-adv-x="1026" />

    
    <glyph glyph-name="liwu" unicode="&#59276;" d="M853.333333 437.33333368H170.666667A32 32 0 0 1 138.666667 405.33333368v-426.666667a117.333333 117.333333 0 0 1 117.333333-117.333333h512a117.333333 117.333333 0 0 1 117.333333 117.333333V405.33333368a32 32 0 0 1-32 32z m-650.666666-64h618.666666V-21.33333331999995a53.333333 53.333333 0 0 0-53.333333-53.333333H256l-3.498667 0.106666A53.333333 53.333333 0 0 0 202.666667-21.33333331999995V373.33333368zM896 565.33333368H128A74.666667 74.666667 0 0 1 53.333333 490.66666668v-85.333333A32 32 0 0 1 85.333333 373.33333368h853.333334a32 32 0 0 1 32 32v85.333333a74.666667 74.666667 0 0 1-74.666667 74.666667z m0-64l1.92-0.170667a10.666667 10.666667 0 0 0 8.746667-10.496v-53.333333h-789.333334V490.66666668a10.666667 10.666667 0 0 0 10.666667 10.666667h768zM230.485333 728.38399968a98.688 98.688 0 0 1 0-137.642666l77.546667-79.722667a32 32 0 0 1 22.933333-9.685333H512c28.309333 0 42.666667 34.026667 22.933333 54.314666l-168.085333 172.736-1.834667 1.834667a95.146667 95.146667 0 0 1-134.528-1.834667z m89.898667-44.032l115.818667-119.018666h-91.733334l-68.117333 70.037333a34.688 34.688 0 0 0 0 48.384 31.146667 31.146667 0 0 0 44.032 0.597333zM657.152 728.38399968l-168.085333-172.736C469.333333 535.38133368 483.690667 501.33333368 512 501.33333368h181.013333a32 32 0 0 1 22.933334 9.685333l77.568 79.701333a98.709333 98.709333 0 0 1 3.413333 134.016l-5.248 5.482667a95.146667 95.146667 0 0 1-134.528-1.834667z m89.898667-44.032l0.597333-0.597333 2.176-2.453333c10.88-13.504 10.154667-33.28-2.176-45.930667L679.488 565.33333368h-91.712l115.242667 118.4a31.146667 31.146667 0 0 0 44.032 0.64zM522.666667 565.33333368a32 32 0 0 0 31.850666-28.928L554.666667 533.33333368v-640a32 32 0 0 0-63.850667-3.072L490.666667-106.66666631999999V533.33333368a32 32 0 0 0 32 32z"  horiz-adv-x="1045" />

    
    <glyph glyph-name="weizhi" unicode="&#58907;" d="M537.2 743.68627426c181.00588271 0 328.23529453-146.54117636 328.23529453-326.7a323.84117636 323.84117636 0 0 0-58.65882364-186.3c-22.55294092-30.97058818-103.87058818-138.1764709-243.9-321.56470547a33.93529453 33.93529453 0 0 0-25.67647089-12.49411816 32.82352911 32.82352911 0 0 0-24.56470547 11.17058818c-127.00588271 163.74705908-208.85294092 271.69411729-245.64705908 323.78823545a322.94117637 322.94117637 0 0 0-58.02352998 185.4C208.96470547 597.14509789 356.19411729 743.68627426 537.2 743.68627426z m0-42.88235274a286.25294092 286.25294092 0 0 1-285.88235273-285.98823545c0-58.60588271 17.5764709-114.88235273 50.50588184-162.31764726 1.05882363-1.90588271 72.4235291-96.35294092 213.93529453-283.4470582a28.58823545 28.58823545 0 0 1 21.44117636-9.79411817 29.48823545 29.48823545 0 0 1 22.34117637 10.95882363c140.98235273 186.51176455 211.81764727 280.3235291 212.45294092 281.48823545 33.40588271 48.07058818 51.08823545 104.45294092 51.08823544 163.05882364a286.25294092 286.25294092 0 0 1-285.88235273 286.04117636z m0-167.45294091c64.21764727 0 116.47058818-52.25294092 116.47058818-116.47058819s-52.25294092-116.47058818-116.47058818-116.47058819-116.47058818 52.25294092-116.47058818 116.47058819 52.25294092 116.47058818 116.47058818 116.47058819z m0-42.3529418a74.17058818 74.17058818 0 0 1 0-148.23529365 74.17058818 74.17058818 0 0 1 0 148.23529365z"  horiz-adv-x="1024" />

    
    <glyph glyph-name="shipinbofang_Facet" unicode="&#59005;" d="M836.8 339L292.9-48c-51.5-36.6-126.3-7-133.9 56.3-0.5 3.9-0.7 7.9-0.7 11.9V747.3c0 3.8 0.2 7.6 0.6 11.3 7.2 63.4 81.6 93.8 134 58.6l542.3-364.5c19-12.7 30.4-34.3 30.4-57.3 0.1-22.5-10.7-43.5-28.8-56.4z"  horiz-adv-x="1024" />

    
    <glyph glyph-name="icon-test" unicode="&#59117;" d="M873.411765 745.4117650000001c198.776471-198.776471 198.776471-524.047059 0-722.82353s-524.047059-198.776471-722.82353 0-201.788235 524.047059 0 722.82353 524.047059 201.788235 722.82353 0zM213.835294 85.83529399999998c165.647059-165.647059 430.682353-165.647059 596.329412 0s165.647059 430.682353 0 596.329412-430.682353 165.647059-596.329412 0-165.647059-430.682353 0-596.329412zM231.905882 338.823529v90.352942h388.517647l-102.4 102.4 63.247059 63.247058 210.82353-210.823529-210.82353-210.823529-63.247059 63.247058 102.4 102.4z"  horiz-adv-x="1024" />

    
    <glyph glyph-name="xiayiyeqianjinchakangengduo-yuankuang" unicode="&#59632;" d="M512 832C264.8 832 64 631.2 64 384s200.8-448 448-448 448 200.8 448 448S759.2 832 512 832zM398.4 112l-45.6 45.6L580 384 353.6 610.4l45.6 45.6 272-272-272.8-272z"  horiz-adv-x="1024" />

    
    <glyph glyph-name="icon-class-a" unicode="&#58962;" d="M480.425 879.553c-260.772 0-472.232-211.396-472.232-472.231 0-260.771 211.46-472.23 472.232-472.23 260.771 0 472.231 211.459 472.231 472.23 0 260.835-211.46 472.231-472.231 472.231zM480.425-1.944c-226.032 0-409.267 183.236-409.267 409.266 0 226.033 183.236 409.268 409.267 409.268 226.031 0 409.266-183.236 409.266-409.268 0-226.032-183.236-409.266-409.266-409.266zM446.423 629.356l-155.812-405.701h57.062l44.518 122.917h169.645l47.346-122.917h61.060l-166.022 405.701h-57.797zM407.684 390.228l44.517 119.042c9.408 25.642 16.725 51.405 21.889 77.476 6.213-22.012 15.866-50.054 28.778-84.117l42.303-112.401-137.487 0z"  horiz-adv-x="1024" />

    
    <glyph glyph-name="24huafei" unicode="&#58991;" d="M400.620283 673.772686l208.308303 0c17.265222 0 31.152511 14.012132 31.152511 31.152511 0 17.140379-14.012132 31.152511-31.152511 31.152511L400.620283 736.077707c-17.265222 0-31.152511-14.012132-31.152511-31.152511C369.467773 687.785841 383.355061 673.772686 400.620283 673.772686zM632.323413 386.050706c17.265222 0 31.152511 14.012132 31.152511 31.152511 0 17.140379-14.012132 31.152511-31.152511 31.152511l-82.697467 0 62.554708 62.554708c12.135388 12.135388 12.135388 31.903617 0 44.163849-12.135388 12.135388-31.903617 12.135388-44.163849 0l-63.055105-63.055105-63.430658 63.430658c-12.135388 12.135388-31.902594 12.135388-44.163849 0-12.135388-12.135388-12.135388-31.903617 0-44.163849l62.930261-62.930261-83.07302 0c-17.265222 0-31.152511-14.012132-31.152511-31.152511 0-17.265222 14.012132-31.152511 31.152511-31.152511l96.335069 0 0-67.154469-96.335069 0c-17.265222 0-31.152511-14.012132-31.152511-31.152511 0-17.265222 14.012132-31.152511 31.152511-31.152511l96.335069 0 0-70.216201c0-17.265222 14.012132-31.152511 31.152511-31.152511 17.265222 0 31.152511 14.012132 31.152511 31.152511l0 70.216201 96.335069 0c17.265222 0 31.152511 14.012132 31.152511 31.152511 0 17.265222-14.012132 31.152511-31.152511 31.152511l-96.335069 0 0 67.154469L632.323413 386.050706 632.323413 386.050706zM830.812069 441.473993l0 81.696674c0 0.751107 0.124843 1.50119 0.124843 2.252297 0 0.87595 0 1.876744-0.124843 2.752694L830.812069 803.579077c0 32.778544-26.64894 59.552328-59.552328 59.552328L252.614391 863.131405c-32.778544 0-59.552328-26.64894-59.552328-59.552328l0-839.159178c0-32.778544 26.64894-59.552328 59.552328-59.552328l302.015521 0c17.265222 0 31.277354 14.012132 31.277354 31.277354 0 17.265222-14.012132 31.277354-31.277354 31.277354-0.62524 0-1.251503 0-1.876744-0.124843L255.491928-32.702564 255.491928 800.827407 768.507048 800.827407l0-272.65175c-0.124843-0.87595-0.124843-1.7519-0.124843-2.752694l0-558.124504-37.407981 0c-0.62524 0-1.251503 0.124843-1.876744 0.124843-17.265222 0-31.277354-14.012132-31.277354-31.277354 0-17.265222 14.012132-31.277354 31.277354-31.277354l0 0 0 0 42.162262 0c32.778544 0 59.552328 26.64894 59.552328 59.552328L830.812069 436.470025c0.124843 0.87595 0.124843 1.7519 0.124843 2.752694C830.937936 439.972802 830.937936 440.723909 830.812069 441.473993z"  horiz-adv-x="1024" />

    
    <glyph glyph-name="huanxin" unicode="&#58882;" d="M551.25791866 126.22021851v50.34802032q105.12166811 13.06861749 109.33903071 103.03901992-1.61405239 60.60506276-57.27282558 89.34560795a301.98398964 301.98398964 0 0 1-52.06620513 20.82648207v73.72574645c11.66282994-8.74712246 18.95209868-22.12813717 21.76367372-40.35130899l78.09930768 15.93225879c-11.81902858 53.05546302-45.29759844 84.39931849-99.8629814 94.76049328V602.67806147h-78.51583732v-68.2587949c-59.35547385-10.41324101-92.00098442-40.97610342-97.46793595-92.00098442q-3.22810473-79.71336002 94.08363264-100.43570968l3.38430331-0.93719169v-93.25057336c-17.54631115 11.61076375-28.37608178 31.23972305-32.07278234 59.09514282l-78.09930765-14.31820642c12.75622025-63.83316748 49.77529207-101.32083513 110.22415618-113.34812851v-52.8471982z m24.93971225 150.21100176a39.30998484 39.30998484 0 0 0-24.93971225-35.45708571v74.45467331c16.50498703-9.52811554 24.93971225-22.3884682 24.93971225-38.9975876z m-117.98202081 165.83086324a31.23972305 31.23972305 0 0 0 14.52647124 24.62731504v-51.28521203c-10.72563827 7.49753356-15.61986151 16.4008546-14.52647124 26.65789699zM131.91670271 573.78131763a422.77758549 422.77758549 0 0 0 450.16440936 229.09130248l-56.59596492-78.88030075 63.72903505-45.9223929 122.98037645 170.67302037-52.06620512 16.14052356a503.11574 503.11574 0 0 1-443.60406755-887.93706196l45.87032672 63.41663784A422.88171793 422.88171793 0 0 0 131.91670271 573.78131763zM807.68397881 791.05359157L761.6053873 727.63695373a424.65196886 424.65196886 0 0 0-319.89476422-762.50957384l56.80422977 78.88030075-63.72903505 45.9223929-122.98037645-170.67302037 52.06620512-16.14052356a503.11574 503.11574 0 0 1 443.60406755 887.93706196z"  horiz-adv-x="1024" />

    
    <glyph glyph-name="shizhong" unicode="&#58956;" d="M512 888.986301C232.854795 888.986301 7.013699 663.145205 7.013699 384s225.841096-504.986301 504.986301-504.986301 504.986301 225.841096 504.986301 504.986301-227.243836 504.986301-504.986301 504.986301z m0-939.835616c-239.868493 0-434.849315 194.980822-434.849315 434.849315s194.980822 434.849315 434.849315 434.849315 434.849315-194.980822 434.849315-434.849315-196.383562-434.849315-434.849315-434.849315zM576.526027 364.361644c1.40274 5.610959 2.805479 12.624658 2.80548 19.638356 0 26.652055-15.430137 50.49863-37.873973 63.123288V723.463014c0 19.638356-15.430137 35.068493-35.068493 35.068493s-35.068493-15.430137-35.068493-35.068493V447.123288c-22.443836-12.624658-37.873973-35.068493-37.873973-63.123288 0-39.276712 32.263014-72.942466 72.942466-72.942466 7.013699 0 14.027397 1.40274 19.638356 2.80548l136.065754-136.065754c7.013699-7.013699 15.430137-9.819178 25.249315-9.819178s18.235616 2.805479 25.249315 9.819178c14.027397 14.027397 14.027397 36.471233 0 49.095891l-136.065754 137.468493z"  horiz-adv-x="1024" />

    
    <glyph glyph-name="SIM" unicode="&#58888;" d="M866.00000001 736H162.80000001c-25.1 0-48.7-9.8-66.5-27.5L-36.49999999 575.7C-54.19999999 558-63.99999999 534.3-63.99999999 509.2V126c0-51.8 42.2-94 94-94h836c51.8 0 94 42.2 94 94V642c0 51.8-42.2 94-94 94z m34-610c0-18.7-15.3-34-34-34H30.00000001c-18.7 0-34 15.3-34 34V509.2c0 9.1 3.5 17.6 10 24L138.70000001 666c6.4 6.4 15 10 24 10H866.00000001c18.7 0 34-15.3 34-34v-516zM226.00000001 420H94.00000001c-16.5 0-30-13.5-30-30s13.5-30 30-30h132c16.5 0 30 13.5 30 30s-13.5 30-30 30zM226.00000001 320H94.00000001c-16.5 0-30-13.5-30-30s13.5-30 30-30h132c16.5 0 30 13.5 30 30s-13.5 30-30 30zM226.00000001 220H94.00000001c-16.5 0-30-13.5-30-30s13.5-30 30-30h132c16.5 0 30 13.5 30 30s-13.5 30-30 30zM742.00000001 608H482.00000001c-51.8 0-94-42.2-94-94v-260c0-51.8 42.2-94 94-94h260c51.8 0 94 42.2 94 94V514c0 51.8-42.2 94-94 94z m-162.3-60h64v-63h-64v63z m-60-232v-96H482.00000001c-18.7 0-34 15.3-34 34v67h72.1c-0.2-1.6-0.4-3.3-0.4-5z m124 0v-96h-64v96c0 1.7-0.2 3.4-0.4 5h64.9c-0.3-1.6-0.5-3.3-0.5-5zM776.00000001 254c0-18.7-15.3-34-34-34h-38.3v96c0 1.7-0.2 3.4-0.4 5H776.00000001v-67z m0 127H448.00000001V514c0 18.7 15.3 34 34 34h37.7v-93c0-16.5 13.5-30 30-30h226.2v-44z m0 104h-72.3v63H742.00000001c18.7 0 34-15.3 34-34v-29z"  horiz-adv-x="1024" />

    
    <glyph glyph-name="qiye" unicode="&#59164;" d="M416 281.6H256c-19.2 0-32-12.8-32-32s12.8-32 32-32h160c19.2 0 32 12.8 32 32s-12.8 32-32 32zM416 537.6H256c-19.2 0-32-12.8-32-32s12.8-32 32-32h160c19.2 0 32 12.8 32 32s-12.8 32-32 32zM992-6.4h-64V435.2c0 38.4-28.8 73.6-67.2 83.2L576 592V761.6c0 22.4-9.6 44.8-28.8 57.6-22.4 16-54.4 22.4-86.4 12.8L166.4 758.4C124.8 748.8 96 710.4 96 668.8v-678.4H32c-19.2 0-32-12.8-32-32s12.8-32 32-32h960c19.2 0 32 12.8 32 32s-12.8 35.2-32 35.2z m-480 0H160V668.8c0 12.8 9.6 25.6 22.4 28.8l294.4 76.8c16 3.2 25.6 0 32-3.2 3.2-3.2 3.2-6.4 3.2-9.6v-768z m352 0h-288V528l268.8-70.4c9.6-3.2 19.2-16 19.2-22.4v-441.6zM768 281.6h-96c-19.2 0-32-12.8-32-32s12.8-32 32-32h96c19.2 0 32 12.8 32 32s-12.8 32-32 32z"  horiz-adv-x="1024" />

    
    <glyph glyph-name="qiye1" unicode="&#58950;" d="M1001.7-73.6H890.4V496.6c0 27.7-17.4 52.8-43.3 62.5L580 659.3c-14.9 5.6-31.1 5.5-45.7 0.4V819.4c0 21.9-10.7 42.4-28.7 54.9s-41 15.3-61.5 7.6L176.9 781.7c-25.9-9.7-43.3-34.9-43.3-62.5v-792.8H22.3C10-73.6 0-83.6 0-95.9s10-22.3 22.3-22.3H1001.8c12.3 0 22.3 10 22.3 22.3s-10.1 22.3-22.4 22.3zM178.1 719.2c0 9.2 5.8 17.6 14.4 20.8L459.7 840.2c7 2.6 14.4 1.7 20.5-2.5s9.6-10.9 9.6-18.3v-893H178.1V719.2z m356.2-792.8V596.7c0 7.4 3.5 14.1 9.6 18.3 6.1 4.2 13.6 5.2 20.5 2.5l267.1-100.2c8.6-3.2 14.4-11.6 14.4-20.8v-570.2H534.3zM391.8 549.7H258.2c-12.3 0-22.3-10-22.3-22.3s10-22.3 22.3-22.3h133.6c12.3 0 22.3 10 22.3 22.3s-10 22.3-22.3 22.3zM748 416.1H614.4c-12.3 0-22.3-10-22.3-22.3s10-22.3 22.3-22.3H748c12.3 0 22.3 10 22.3 22.3s-10 22.3-22.3 22.3zM748 282.6H614.4c-12.3 0-22.3-10-22.3-22.3s10-22.3 22.3-22.3H748c12.3 0 22.3 10 22.3 22.3s-10 22.3-22.3 22.3zM391.8 282.6H258.2c-12.3 0-22.3-10-22.3-22.3s10-22.3 22.3-22.3h133.6c12.3 0 22.3 10 22.3 22.3s-10 22.3-22.3 22.3z"  horiz-adv-x="1024" />

    
    <glyph glyph-name="F_round" unicode="&#58930;" d="M512-3.5c-213.668 0-387.5 173.832-387.5 387.5S298.332 771.5 512 771.5 899.5 597.668 899.5 384 725.668-3.5 512-3.5zM512 759c-206.776 0-375-168.224-375-375s168.224-375 375-375 375 168.224 375 375-168.224 375-375 375m0 25c220.914 0 400-179.086 400-400S732.914-16 512-16 112 163.086 112 384s179.086 400 400 400zM640.266 559.252a25.476 25.476 0 0 1-6.331 17.266A21.725 21.725 0 0 1 617.244 584c-4.6 0-10.36-0.576-17.266-0.576-7.482-1.151-16.691-1.727-27.05-2.3l-32.23-2.3-32.806-2.3-45.468-2.3q-23.309-1.727-46.619-1.727c-11.511 0-20.144-2.3-24.748-5.755-5.757-4.037-8.057-9.792-8.057-17.274a21.042 21.042 0 0 1 5.18-14.389c3.453-4.6 8.633-8.058 16.691-9.209-2.3-25.9-3.453-52.95-4.6-80.576-1.156-28.774-1.156-55.826-1.156-81.15v-36.835l1.151-40.863c0-13.813 0-26.475 0.576-37.986 0-12.086 0.576-21.295 0.576-28.2 0-11.511 2.878-20.719 7.482-27.05s13.237-9.209 25.9-9.209c4.6 0 9.784 1.727 16.115 4.6 5.755 2.878 8.633 6.331 8.633 10.935 0 1.727-0.576 3.453-0.576 5.18 0 1.151-0.576 2.3-0.576 4.029a9.283 9.283 0 0 0-1.727 5.18l-1.727 5.18a76.867 76.867 0 0 0-4.029 10.36 33.509 33.509 0 0 0-1.727 10.935c-1.727 18.417-2.3 37.986-2.3 57.554s-0.576 39.712-0.576 61.007l67.914 4.6c21.295 1.727 42.59 4.029 63.309 7.482l9.209 1.727c3.453 0 6.906 1.151 10.36 2.3a37.576 37.576 0 0 1 9.784 4.6 9.468 9.468 0 0 1 4.6 8.633c0 2.878-1.151 5.755-2.878 9.209a110.492 110.492 0 0 1-8.058 8.633 100.015 100.015 0 0 1-10.935 5.755c-4.029 1.151-7.482 2.3-10.36 2.3-3.453 0-6.331-0.576-9.784-0.576l-10.36-1.727c-4.029-1.151-7.482-1.727-10.36-2.3l-10.36-2.3a287.39 287.39 0 0 0-44.317-3.453c-14.959-1.139-31.074-1.714-48.34-2.866 0 21.871 0 42.59 0.576 63.309 0 20.144 1.151 40.863 2.878 62.734q27.626 1.727 53.525 3.453l51.8 1.727c10.36 0.576 21.295 1.151 32.23 1.727a202.217 202.217 0 0 1 31.655 2.878 24.765 24.765 0 0 1 15.54 7.482c4.026 3.453 6.328 8.632 6.328 14.964z"  horiz-adv-x="1024" />

    
    <glyph glyph-name="qiye2" unicode="&#58912;" d="M308.253069 125.100723h74.024096v-74.024096H308.253069zM308.253069 260.811566h74.024096v-74.024096H308.253069zM308.253069 445.871807h74.024096v-123.373494H308.253069zM12.156683-53.790843h999.325301v-74.024097H12.156683zM616.686804-128H73.84343V610.081928L616.686804 896z m-468.819277 74.024096h394.79518V773.181687L147.867527 565.420723zM679.237165 614.58506l-0.863614-0.925301v-100.487711l197.39759-188.021205v-415.953735h74.024096V356.857831l-270.558072 257.727229z"  horiz-adv-x="1024" />

    
    <glyph glyph-name="you-" unicode="&#58905;" d="M670.37 337.59c-12.31 0-24.56 4.69-33.94 14.06L319.68 668.47c-18.75 18.75-18.75 49.12 0 67.88s49.12 18.75 67.88 0l316.75-316.81c18.75-18.75 18.75-49.12 0-67.88-9.38-9.38-21.63-14.07-33.94-14.07zM353.62 17.59c-12.31 0-24.56 4.69-33.94 14.06-18.75 18.75-18.75 49.12 0 67.88l316.75 316.81c18.75 18.75 49.12 18.75 67.88 0s18.75-49.12 0-67.88l-316.75-316.8c-9.38-9.38-21.63-14.07-33.94-14.07z"  horiz-adv-x="1024" />

    
    <glyph glyph-name="zuo" unicode="&#58906;" d="M277.617 355.294l406.92-406.919c16.897-16.9 44.296-16.9 61.194 0 16.901 16.899 16.9 44.296 0 61.194l-376.321 376.322 373.233 373.231c16.898 16.901 16.898 44.298 0 61.197-16.898 16.898-44.297 16.9-61.196 0l-400.476-400.477c-0.563-0.563-1.105-1.14-1.629-1.724-0.585-0.526-1.163-1.066-1.725-1.63-16.898-16.897-16.898-44.296 0-61.194z"  horiz-adv-x="1024" />

    
    <glyph glyph-name="search" unicode="&#59004;" d="M939.7 54.3l-166.4 166.4c-3.1 3.1-6.4 5.8-9.9 8.2 43.2 62.1 68.6 137.7 68.6 219.1 0 212.1-171.9 384-384 384s-384-171.9-384-384 171.9-384 384-384c81.4 0 157 25.4 219.1 68.6 2.4-3.5 5.1-6.8 8.2-9.9l166.4-166.4c27.1-27.1 70.9-27.1 98 0s27.1 70.9 0 98zM448 128c-43.2 0-85.1 8.5-124.5 25.1-38.1 16.1-72.3 39.2-101.7 68.6-29.4 29.4-52.5 63.6-68.6 101.7-16.7 39.5-25.2 81.4-25.2 124.6 0 43.2 8.5 85.1 25.1 124.5 16.1 38.1 39.2 72.3 68.6 101.7 29.4 29.4 63.6 52.5 101.7 68.6 39.5 16.7 81.4 25.2 124.6 25.2 43.2 0 85.1-8.5 124.5-25.1 38.1-16.1 72.3-39.2 101.7-68.6 29.4-29.4 52.5-63.6 68.6-101.7 16.7-39.5 25.2-81.4 25.2-124.6 0-43.2-8.5-85.1-25.1-124.5-16.1-38.1-39.2-72.3-68.6-101.7-29.4-29.4-63.6-52.5-101.7-68.6-39.5-16.7-81.4-25.2-124.6-25.2z"  horiz-adv-x="1024" />

    
    <glyph glyph-name="gouwuche1" unicode="&#58880;" d="M347.136 112.63999999999999q19.456 0 36.864-7.168t30.72-19.968 20.48-30.208 7.168-36.864-7.168-36.864-20.48-30.208-30.72-20.48-36.864-7.68q-20.48 0-37.376 7.68t-30.208 20.48-20.48 30.208-7.168 36.864 7.168 36.864 20.48 30.208 30.208 19.968 37.376 7.168zM773.12 110.59199999999998q19.456 0 37.376-7.168t30.72-19.968 20.48-30.208 7.68-36.864-7.68-36.864-20.48-30.208-30.72-20.48-37.376-7.68-36.864 7.68-30.208 20.48-20.48 30.208-7.68 36.864 7.68 36.864 20.48 30.208 30.208 19.968 36.864 7.168zM945.152 692.2239999999999q28.672 0 44.544-7.68t22.528-18.944 6.144-24.064-3.584-22.016-12.8-37.888-22.016-62.976-24.064-68.096-17.92-53.248q-13.312-40.96-33.792-56.832t-50.176-15.872l-34.816 0-66.56 0-87.04 0-95.232 0-253.952 0 15.36-92.16 516.096 0q49.152 0 49.152-41.984 0-20.48-9.728-35.328t-38.4-14.848l-49.152 0-95.232 0-117.76 0-119.808 0-98.304 0-56.32 0q-20.48 0-34.304 9.216t-23.04 24.064-14.848 32.256-8.704 32.768q-1.024 6.144-5.632 29.696t-11.264 58.88-14.848 78.848-16.384 87.552q-19.456 103.424-44.032 230.4l-76.8 0q-15.36 0-25.6 7.68t-16.896 18.432-9.216 23.04-2.56 22.528q0 20.48 13.824 33.792t37.376 13.312l22.528 0 20.48 0 25.6 0 34.816 0q20.48 0 32.768-6.144t19.456-15.36 10.24-19.456 5.12-17.408q2.048-8.192 4.096-23.04t4.096-30.208q3.072-18.432 6.144-38.912l700.416 0z"  horiz-adv-x="1024" />

    


  </font>
</defs>
</svg>
